<svg width="142" height="94" viewBox="0 0 142 94" fill="none" xmlns="http://www.w3.org/2000/svg">
<rect width="141" height="94" transform="translate(0.5)" fill="white"/>
<g clip-path="url(#clip0_404_231)">
<path d="M55.5592 55.168H51.5897V70.8826H55.5592V55.168Z" fill="#0092D4"/>
<path d="M87.5412 59.6772C87.3779 59.5893 86.0966 58.8356 84.1998 58.8356C81.6372 58.8356 79.8534 60.6194 79.8534 63.0312C79.8534 65.443 81.5618 67.2268 84.1998 67.2268C86.0589 67.2268 87.3653 66.4856 87.5412 66.3977V70.6184C87.0387 70.7566 85.6946 71.1837 83.9234 71.1837C79.464 71.1837 75.5448 68.1061 75.5448 63.0438C75.5448 58.3457 79.0872 54.9038 83.9234 54.9038C85.7825 54.9038 87.1643 55.356 87.5412 55.4691V59.6898V59.6772Z" fill="#0092D4"/>
<path d="M46.138 59.6772C45.9747 59.5893 44.706 58.8356 42.8091 58.8356C40.2466 58.8356 38.4628 60.6194 38.4628 63.0312C38.4628 65.443 40.1712 67.2268 42.8091 67.2268C44.6683 67.2268 45.9747 66.4856 46.138 66.3977V70.6184C45.6481 70.7566 44.2914 71.1837 42.5202 71.1837C38.0608 71.1837 34.1542 68.1061 34.1542 63.0438C34.1542 58.3457 37.6966 54.9038 42.5202 54.9038C44.3919 54.9038 45.7611 55.356 46.138 55.4691V59.6898V59.6772Z" fill="#0092D4"/>
<path d="M108.318 63.0315C108.318 67.5286 104.851 71.1715 100.015 71.1715C95.1787 71.1715 91.7117 67.5286 91.7117 63.0315C91.7117 58.5345 95.1787 54.8916 100.015 54.8916C104.851 54.8916 108.318 58.5345 108.318 63.0315ZM100.015 58.8988C97.6659 58.8988 95.9198 60.7453 95.9198 63.0315C95.9198 65.3178 97.6659 67.1643 100.015 67.1643C102.364 67.1643 104.123 65.3178 104.123 63.0315C104.123 60.7453 102.377 58.8988 100.015 58.8988Z" fill="#0092D4"/>
<path d="M70.5955 58.748C70.5955 58.748 68.862 58.2707 67.4928 58.2707C65.8975 58.2707 65.0433 58.7983 65.0433 59.5645C65.0433 60.5192 66.2115 60.8584 66.8647 61.0594L67.9576 61.4111C70.5327 62.2276 71.7009 63.9862 71.7009 65.9082C71.7009 69.8525 68.2339 71.184 65.194 71.184C63.0837 71.184 61.1115 70.7946 60.9105 70.757V67.1392C61.2622 67.2271 62.9204 67.717 64.6539 67.717C66.626 67.717 67.5305 67.1392 67.5305 66.2473C67.5305 65.4559 66.7516 64.9912 65.7593 64.6771C65.5206 64.6017 65.1563 64.4887 64.9177 64.4008C62.7068 63.6973 60.8728 62.4035 60.8728 59.8032C60.8728 56.8638 63.0711 54.8916 66.7265 54.8916C68.661 54.8916 70.4699 55.3564 70.5955 55.3941V58.748Z" fill="#0092D4"/>
<path d="M29.9461 38.2848C29.9461 37.2045 29.0667 36.3252 27.9739 36.3252C26.881 36.3252 26.0017 37.2045 26.0017 38.2848V42.405C26.0017 43.4979 26.8936 44.3772 27.9739 44.3772C29.0542 44.3772 29.9461 43.4979 29.9461 42.405V38.2848Z" fill="#0092D4"/>
<path d="M40.7616 32.8707C40.7616 31.7904 39.8823 30.9111 38.7894 30.9111C37.6966 30.9111 36.8173 31.7904 36.8173 32.8707V42.405C36.8173 43.4979 37.6966 44.3772 38.7894 44.3772C39.8823 44.3772 40.7616 43.4979 40.7616 42.405V32.8707Z" fill="#0092D4"/>
<path d="M51.5772 25.4596C51.5772 24.3793 50.6979 23.5 49.605 23.5C48.5121 23.5 47.6328 24.3793 47.6328 25.4596V46.3245C47.6328 47.4174 48.5121 48.2967 49.605 48.2967C50.6979 48.2967 51.5772 47.4174 51.5772 46.3245V25.4596Z" fill="#0092D4"/>
<path d="M62.3927 32.8707C62.3927 31.7904 61.5134 30.9111 60.4205 30.9111C59.3277 30.9111 58.4484 31.7904 58.4484 32.8707V42.405C58.4484 43.4979 59.3277 44.3772 60.4205 44.3772C61.5134 44.3772 62.3927 43.4979 62.3927 42.405V32.8707Z" fill="#0092D4"/>
<path d="M73.1958 38.2848C73.1958 37.2045 72.3165 36.3252 71.2362 36.3252C70.1559 36.3252 69.264 37.2045 69.264 38.2848V42.405C69.264 43.4979 70.1434 44.3772 71.2362 44.3772C72.3291 44.3772 73.1958 43.4979 73.1958 42.405V38.2848Z" fill="#0092D4"/>
<path d="M84.024 32.8707C84.024 31.7904 83.1447 30.9111 82.0643 30.9111C80.984 30.9111 80.1047 31.7904 80.1047 32.8707V42.405C80.1047 43.4979 80.984 44.3772 82.0643 44.3772C83.1447 44.3772 84.024 43.4979 84.024 42.405V32.8707Z" fill="#0092D4"/>
<path d="M94.8395 25.4596C94.8395 24.3793 93.9602 23.5 92.8799 23.5C91.7996 23.5 90.9203 24.3793 90.9203 25.4596V46.3245C90.9203 47.4174 91.7996 48.2967 92.8799 48.2967C93.9602 48.2967 94.8395 47.4174 94.8395 46.3245V25.4596Z" fill="#0092D4"/>
<path d="M105.655 32.8707C105.655 31.7904 104.776 30.9111 103.67 30.9111C102.565 30.9111 101.711 31.7904 101.711 32.8707V42.405C101.711 43.4979 102.59 44.3772 103.67 44.3772C104.751 44.3772 105.655 43.4979 105.655 42.405V32.8707Z" fill="#0092D4"/>
<path d="M116.458 38.2848C116.458 37.2045 115.579 36.3252 114.499 36.3252C113.418 36.3252 112.539 37.2045 112.539 38.2848V42.405C112.539 43.4979 113.418 44.3772 114.499 44.3772C115.579 44.3772 116.458 43.4979 116.458 42.405V38.2848Z" fill="#0092D4"/>
<path d="M114.184 68.8223V69.0735H113.481V70.8949H113.192V69.0735H112.489V68.8223H114.184Z" fill="#0092D4"/>
<path d="M114.335 68.8223H114.787L115.403 70.5181L116.006 68.8223H116.446V70.8949H116.144V69.1991L115.516 70.8949H115.24L114.624 69.1991H114.612V70.8949H114.323V68.8223H114.335Z" fill="#0092D4"/>
</g>
<defs>
<clipPath id="clip0_404_231">
<rect width="90.4438" height="47.6714" fill="white" transform="translate(26.0144 23.5)"/>
</clipPath>
</defs>
</svg>
