<svg width="142" height="94" viewBox="0 0 142 94" fill="none" xmlns="http://www.w3.org/2000/svg">
<rect width="141" height="94" transform="translate(0.5)" fill="white"/>
<g clip-path="url(#clip0_404_217)">
<path d="M92.9708 47.0878V47.0628C92.9708 45.9003 92.1844 45.1264 91.2569 45.1264C90.3294 45.1264 89.5586 45.8972 89.5586 47.0628V47.0878C89.5586 48.2534 90.3326 49.0242 91.2569 49.0242C92.1812 49.0242 92.9708 48.266 92.9708 47.0878ZM87.5972 43.5691H89.5868V44.5749C90.0694 43.92 90.7368 43.4375 91.7708 43.4375C93.4064 43.4375 94.9605 44.719 94.9605 47.0596V47.0847C94.9605 49.4253 93.4314 50.7068 91.7708 50.7068C90.7117 50.7068 90.0568 50.2243 89.5868 49.6603V52.6683H87.5972V43.5691Z" fill="white"/>
<path d="M48.1265 41.3599H49.9877L54.2741 47.0625V41.3599H56.2637V50.5813H54.5498L50.1161 44.7595V50.5813H48.1265V41.3599Z" fill="white"/>
<path d="M62.1732 46.5268C62.0572 45.6369 61.534 45.0353 60.6974 45.0353C59.8608 45.0353 59.3344 45.6275 59.1777 46.5268H62.1732ZM57.2288 47.1158V47.0876C57.2288 45.0854 58.6544 43.4404 60.6942 43.4404C63.0348 43.4404 64.1064 45.2578 64.1064 47.2474C64.1064 47.4041 64.0939 47.589 64.0814 47.7707H59.2028C59.4002 48.6731 60.0268 49.1431 60.9167 49.1431C61.5841 49.1431 62.0666 48.9332 62.6181 48.4224L63.7555 49.4282C63.1038 50.2398 62.1606 50.7348 60.8916 50.7348C58.786 50.7348 57.2288 49.2559 57.2288 47.1127V47.1158Z" fill="white"/>
<path d="M65.3505 48.5921V45.2708H64.5139V43.5694H65.3505V41.7803H67.337V43.5694H68.9852V45.2708H67.337V48.2663C67.337 48.7237 67.5344 48.9462 67.9794 48.9462C68.346 48.9462 68.6718 48.8553 68.9601 48.6955V50.2904C68.5402 50.5411 68.0546 50.6977 67.3872 50.6977C66.1714 50.6977 65.3505 50.2121 65.3505 48.5921Z" fill="white"/>
<path d="M84.7992 47.0878V47.0628C84.7992 45.9003 84.0127 45.1264 83.0884 45.1264C82.1641 45.1264 81.3901 45.8972 81.3901 47.0628V47.0878C81.3901 48.2534 82.1609 49.0242 83.0884 49.0242C84.0159 49.0242 84.7992 48.266 84.7992 47.0878ZM79.4255 43.5691H81.4121V44.5749C81.8946 43.92 82.562 43.4375 83.596 43.4375C85.2316 43.4375 86.7857 44.719 86.7857 47.0596V47.0847C86.7857 49.4253 85.2567 50.7068 83.596 50.7068C82.5369 50.7068 81.8821 50.2243 81.4121 49.6603V52.6683H79.4255V43.5691Z" fill="white"/>
<path d="M75.3898 46.7492L74.1741 43.7788L72.9583 46.7492H75.3898ZM73.2936 41.3599H75.1047L78.9305 50.5813H76.8311L75.9883 48.5258H72.3599L71.5233 50.5813H69.4709L73.2936 41.3599Z" fill="white"/>
<path d="M33.0867 41.3599V50.5813H37.3887V45.0478H39.8484V50.5813H44.1505V41.3599H33.0867Z" fill="white"/>
<path d="M96.2359 44.5184H96.4553C96.4991 44.5184 96.543 44.5184 96.5869 44.5152C96.6307 44.5121 96.6683 44.5027 96.6997 44.4902C96.7341 44.4745 96.7592 44.4526 96.778 44.4244C96.7968 44.3962 96.8062 44.3523 96.8062 44.299C96.8062 44.2552 96.7968 44.2176 96.778 44.1925C96.7623 44.1674 96.7373 44.1455 96.7122 44.1298C96.684 44.1142 96.6527 44.1048 96.6182 44.1016C96.5837 44.0954 96.5461 44.0922 96.5117 44.0922H96.2359V44.5184ZM96.0291 43.923H96.5493C96.7091 43.923 96.8281 43.9544 96.9033 44.017C96.9785 44.0797 97.0193 44.1768 97.0193 44.3053C97.0193 44.4275 96.9848 44.5152 96.9159 44.5716C96.8501 44.628 96.7655 44.6625 96.6652 44.6719L97.0506 45.2641H96.825L96.4584 44.6876H96.2359V45.2641H96.026V43.9199L96.0291 43.923ZM95.5278 44.5904C95.5278 44.7314 95.5529 44.863 95.5999 44.9821C95.6469 45.1012 95.7158 45.2046 95.8004 45.2923C95.885 45.38 95.9853 45.449 96.1012 45.4991C96.2171 45.5492 96.3425 45.5743 96.4772 45.5743C96.6119 45.5743 96.7341 45.5492 96.8501 45.4991C96.966 45.449 97.0663 45.38 97.1509 45.2923C97.2355 45.2046 97.3013 45.1012 97.3514 44.9821C97.3984 44.863 97.4235 44.7314 97.4235 44.5904C97.4235 44.4494 97.3984 44.3241 97.3514 44.205C97.3044 44.086 97.2355 43.9826 97.1509 43.898C97.0663 43.8102 96.966 43.7413 96.8501 43.6912C96.7341 43.641 96.6119 43.616 96.4772 43.616C96.3425 43.616 96.2171 43.641 96.1012 43.6912C95.9853 43.7413 95.885 43.8102 95.8004 43.898C95.7158 43.9857 95.6469 44.0891 95.5999 44.205C95.5529 44.3241 95.5278 44.4526 95.5278 44.5904ZM95.3179 44.5904C95.3179 44.4275 95.3492 44.2771 95.4087 44.1392C95.4714 43.9982 95.5529 43.8792 95.6594 43.7758C95.7659 43.6724 95.8881 43.594 96.0291 43.5345C96.1701 43.475 96.3174 43.4468 96.4772 43.4468C96.637 43.4468 96.7811 43.475 96.9221 43.5345C97.0631 43.5909 97.1853 43.6724 97.2887 43.7758C97.3921 43.8792 97.4767 43.9982 97.5363 44.1392C97.5989 44.2802 97.6303 44.4275 97.6303 44.5904C97.6303 44.7534 97.5989 44.91 97.5363 45.0479C97.4736 45.1889 97.3921 45.3111 97.2887 45.4145C97.1853 45.5179 97.0631 45.5994 96.9221 45.6558C96.7811 45.7153 96.6339 45.7435 96.4772 45.7435C96.3205 45.7435 96.1701 45.7153 96.0291 45.6558C95.8881 45.5962 95.7659 45.5179 95.6594 45.4145C95.5529 45.3111 95.4714 45.1889 95.4087 45.0479C95.3461 44.9069 95.3179 44.7534 95.3179 44.5904Z" fill="white"/>
</g>
<g clip-path="url(#clip1_404_217)">
<path d="M34.8699 31.332H28.7V37.4853H34.8699V31.332Z" fill="#22C4F4"/>
<path d="M34.7084 63.3391V41.2073H28.8618V63.3391H34.7084ZM73.4574 63.5624V58.1411C72.5991 58.1411 71.8901 58.0915 71.3427 58.0047C70.7456 57.9054 70.2729 57.7069 69.9744 57.3968C69.6634 57.0866 69.4644 56.64 69.3648 56.0694C69.2778 55.5235 69.228 54.804 69.228 53.9356V46.1944H73.4574V41.2073H69.228V32.5977H63.3814V53.9852C63.3814 55.784 63.5432 57.3224 63.8541 58.5505C64.1651 59.7539 64.6876 60.7463 65.4091 61.4907C66.1306 62.235 67.1009 62.7685 68.2577 63.091C69.4395 63.4136 70.9322 63.5748 72.7111 63.5748H73.445L73.4574 63.5624ZM106.957 63.3391V30.8857H101.11V63.3391H106.957ZM57.7463 43.3907C56.1292 41.6415 53.8403 40.7607 50.9419 40.7607C49.5487 40.7607 48.255 41.046 47.1106 41.6167C45.9661 42.1874 44.9834 42.9813 44.2122 43.9738L43.8887 44.3832V44.011V41.2073H38.1292V63.3391H43.9385V51.5537V52.3725C43.9385 52.236 43.9385 52.0995 43.9385 51.9755C44.0007 49.9037 44.5107 48.3654 45.481 47.3854C46.5135 46.3433 47.7574 45.8098 49.188 45.8098C50.8797 45.8098 52.161 46.3309 53.0193 47.3357C53.8528 48.3282 54.2757 49.7549 54.2882 51.5785V51.6281V63.3267H60.1845V50.7597C60.1845 47.6087 59.3635 45.1151 57.7339 43.3783L57.7463 43.3907ZM98.0628 52.236C98.0628 50.6481 97.7767 49.147 97.2169 47.7575C96.6571 46.3805 95.861 45.1523 94.8658 44.1103C93.8707 43.0682 92.6516 42.237 91.2459 41.6539C89.8527 41.0708 88.2853 40.7731 86.606 40.7731C85.0137 40.7731 83.4961 41.0833 82.1029 41.6787C80.6972 42.2866 79.4657 43.1054 78.4332 44.1351C77.4008 45.1647 76.5673 46.3929 75.9702 47.7948C75.3607 49.1842 75.0621 50.6977 75.0621 52.2856C75.0621 53.8736 75.3482 55.3871 75.9329 56.7765C76.5051 58.1784 77.3137 59.4065 78.3337 60.4238C79.3538 61.4535 80.5977 62.2847 82.0407 62.8801C83.4837 63.488 85.0884 63.7857 86.7926 63.7857C91.7435 63.7857 94.8285 61.5403 96.6696 59.4437L92.465 56.2431C91.5818 57.2975 89.4795 58.7118 86.8424 58.7118C85.1879 58.7118 83.832 58.3272 82.8119 57.5829C81.7795 56.8261 81.0704 55.7965 80.6972 54.5063L80.635 54.2954H98.0628V52.2112V52.236ZM80.6848 50.2015C80.6848 48.5763 82.5507 45.7478 86.5687 45.7478C90.5866 45.7478 92.4526 48.5763 92.4526 50.1891H80.6724L80.6848 50.2015Z" fill="#127DC2"/>
<path d="M113.612 60.5479C113.5 60.2874 113.338 60.0641 113.152 59.8656C112.965 59.6671 112.729 59.5182 112.468 59.4066C112.206 59.2949 111.92 59.2329 111.622 59.2329C111.323 59.2329 111.037 59.2949 110.776 59.4066C110.515 59.5182 110.291 59.6795 110.092 59.8656C109.893 60.0641 109.743 60.2874 109.631 60.5479C109.519 60.8084 109.457 61.0938 109.457 61.3915C109.457 61.6892 109.519 61.9746 109.631 62.2351C109.743 62.4956 109.905 62.7189 110.092 62.9174C110.291 63.1159 110.515 63.2648 110.776 63.3764C111.037 63.4881 111.323 63.5501 111.622 63.5501C111.92 63.5501 112.206 63.4881 112.468 63.3764C112.729 63.2648 112.953 63.1035 113.152 62.9174C113.351 62.7189 113.5 62.4956 113.612 62.2351C113.724 61.9746 113.786 61.6892 113.786 61.3915C113.786 61.0938 113.724 60.8084 113.612 60.5479ZM113.264 62.0862C113.177 62.2971 113.04 62.4956 112.878 62.6569C112.716 62.8182 112.53 62.9422 112.306 63.0415C112.094 63.1283 111.858 63.1779 111.609 63.1779C111.361 63.1779 111.137 63.1283 110.913 63.0415C110.701 62.9546 110.502 62.8182 110.34 62.6569C110.179 62.4956 110.054 62.3095 109.955 62.0862C109.868 61.8753 109.818 61.6396 109.818 61.3915C109.818 61.1434 109.868 60.9201 109.955 60.6968C110.042 60.4859 110.179 60.2874 110.34 60.1261C110.502 59.9648 110.689 59.8408 110.913 59.7415C111.124 59.6547 111.361 59.6051 111.609 59.6051C111.858 59.6051 112.082 59.6547 112.306 59.7415C112.517 59.8284 112.716 59.9648 112.878 60.1261C113.04 60.2874 113.164 60.4735 113.264 60.6968C113.351 60.9077 113.401 61.1434 113.401 61.3915C113.401 61.6396 113.351 61.8629 113.264 62.0862ZM112.032 61.5652C112.206 61.5404 112.343 61.4783 112.455 61.3791C112.567 61.2674 112.617 61.1062 112.617 60.8953C112.617 60.6596 112.542 60.4735 112.405 60.3494C112.269 60.2254 112.045 60.1633 111.746 60.1633H110.788V62.6321H111.236V61.6272H111.572L112.194 62.6321H112.667L112.032 61.59V61.5652ZM111.783 61.2054C111.709 61.2054 111.647 61.2054 111.572 61.2054H111.236V60.5107H111.572C111.647 60.5107 111.709 60.5107 111.783 60.5107C111.858 60.5107 111.92 60.5231 111.97 60.5479C112.032 60.5727 112.07 60.6099 112.107 60.6472C112.144 60.6968 112.157 60.7588 112.157 60.8332C112.157 60.9077 112.144 60.9821 112.107 61.0193C112.07 61.069 112.032 61.1062 111.97 61.1186C111.908 61.1434 111.846 61.1558 111.783 61.1558V61.2054Z" fill="#127DC2"/>
</g>
<defs>
<clipPath id="clip0_404_217">
<rect width="64.5435" height="11.3145" fill="white" transform="translate(33.0867 41.3599)"/>
</clipPath>
<clipPath id="clip1_404_217">
<rect width="85.0862" height="32.9" fill="white" transform="translate(28.7 30.8857)"/>
</clipPath>
</defs>
</svg>
