<svg width="142" height="94" viewBox="0 0 142 94" fill="none" xmlns="http://www.w3.org/2000/svg">
<rect width="141" height="94" transform="translate(0.5)" fill="white"/>
<path d="M65.4854 0.313477L24.6267 23.6255V70.2432L65.4854 93.5552L106.341 70.2432V23.6255L65.4854 0.313477Z" fill="#18233D"/>
<g clip-path="url(#clip0_404_206)">
<path d="M92.9708 47.0878V47.0628C92.9708 45.9003 92.1844 45.1264 91.2569 45.1264C90.3294 45.1264 89.5586 45.8972 89.5586 47.0628V47.0878C89.5586 48.2534 90.3326 49.0242 91.2569 49.0242C92.1812 49.0242 92.9708 48.266 92.9708 47.0878ZM87.5972 43.5691H89.5868V44.5749C90.0694 43.92 90.7368 43.4375 91.7708 43.4375C93.4064 43.4375 94.9605 44.719 94.9605 47.0596V47.0847C94.9605 49.4253 93.4314 50.7068 91.7708 50.7068C90.7117 50.7068 90.0568 50.2243 89.5868 49.6603V52.6683H87.5972V43.5691Z" fill="white"/>
<path d="M48.1265 41.3599H49.9877L54.2741 47.0625V41.3599H56.2637V50.5813H54.5498L50.1161 44.7595V50.5813H48.1265V41.3599Z" fill="white"/>
<path d="M62.1732 46.5268C62.0572 45.6369 61.534 45.0353 60.6974 45.0353C59.8608 45.0353 59.3344 45.6275 59.1777 46.5268H62.1732ZM57.2288 47.1158V47.0876C57.2288 45.0854 58.6544 43.4404 60.6942 43.4404C63.0348 43.4404 64.1064 45.2578 64.1064 47.2474C64.1064 47.4041 64.0939 47.589 64.0814 47.7707H59.2028C59.4002 48.6731 60.0268 49.1431 60.9167 49.1431C61.5841 49.1431 62.0666 48.9332 62.6181 48.4224L63.7555 49.4282C63.1038 50.2398 62.1606 50.7348 60.8916 50.7348C58.786 50.7348 57.2288 49.2559 57.2288 47.1127V47.1158Z" fill="white"/>
<path d="M65.3505 48.5921V45.2708H64.5139V43.5694H65.3505V41.7803H67.337V43.5694H68.9852V45.2708H67.337V48.2663C67.337 48.7237 67.5344 48.9462 67.9794 48.9462C68.346 48.9462 68.6718 48.8553 68.9601 48.6955V50.2904C68.5402 50.5411 68.0546 50.6977 67.3872 50.6977C66.1714 50.6977 65.3505 50.2121 65.3505 48.5921Z" fill="white"/>
<path d="M84.7992 47.0878V47.0628C84.7992 45.9003 84.0127 45.1264 83.0884 45.1264C82.1641 45.1264 81.3901 45.8972 81.3901 47.0628V47.0878C81.3901 48.2534 82.1609 49.0242 83.0884 49.0242C84.0159 49.0242 84.7992 48.266 84.7992 47.0878ZM79.4255 43.5691H81.4121V44.5749C81.8946 43.92 82.562 43.4375 83.596 43.4375C85.2316 43.4375 86.7857 44.719 86.7857 47.0596V47.0847C86.7857 49.4253 85.2567 50.7068 83.596 50.7068C82.5369 50.7068 81.8821 50.2243 81.4121 49.6603V52.6683H79.4255V43.5691Z" fill="white"/>
<path d="M75.3898 46.7492L74.1741 43.7788L72.9583 46.7492H75.3898ZM73.2936 41.3599H75.1047L78.9305 50.5813H76.8311L75.9883 48.5258H72.3599L71.5233 50.5813H69.4709L73.2936 41.3599Z" fill="white"/>
<path d="M33.0867 41.3599V50.5813H37.3887V45.0478H39.8484V50.5813H44.1505V41.3599H33.0867Z" fill="white"/>
<path d="M96.2359 44.5184H96.4553C96.4991 44.5184 96.543 44.5184 96.5869 44.5152C96.6307 44.5121 96.6683 44.5027 96.6997 44.4902C96.7341 44.4745 96.7592 44.4526 96.778 44.4244C96.7968 44.3962 96.8062 44.3523 96.8062 44.299C96.8062 44.2552 96.7968 44.2176 96.778 44.1925C96.7623 44.1674 96.7373 44.1455 96.7122 44.1298C96.684 44.1142 96.6527 44.1048 96.6182 44.1016C96.5837 44.0954 96.5461 44.0922 96.5117 44.0922H96.2359V44.5184ZM96.0291 43.923H96.5493C96.7091 43.923 96.8281 43.9544 96.9033 44.017C96.9785 44.0797 97.0193 44.1768 97.0193 44.3053C97.0193 44.4275 96.9848 44.5152 96.9159 44.5716C96.8501 44.628 96.7655 44.6625 96.6652 44.6719L97.0506 45.2641H96.825L96.4584 44.6876H96.2359V45.2641H96.026V43.9199L96.0291 43.923ZM95.5278 44.5904C95.5278 44.7314 95.5529 44.863 95.5999 44.9821C95.6469 45.1012 95.7158 45.2046 95.8004 45.2923C95.885 45.38 95.9853 45.449 96.1012 45.4991C96.2171 45.5492 96.3425 45.5743 96.4772 45.5743C96.6119 45.5743 96.7341 45.5492 96.8501 45.4991C96.966 45.449 97.0663 45.38 97.1509 45.2923C97.2355 45.2046 97.3013 45.1012 97.3514 44.9821C97.3984 44.863 97.4235 44.7314 97.4235 44.5904C97.4235 44.4494 97.3984 44.3241 97.3514 44.205C97.3044 44.086 97.2355 43.9826 97.1509 43.898C97.0663 43.8102 96.966 43.7413 96.8501 43.6912C96.7341 43.641 96.6119 43.616 96.4772 43.616C96.3425 43.616 96.2171 43.641 96.1012 43.6912C95.9853 43.7413 95.885 43.8102 95.8004 43.898C95.7158 43.9857 95.6469 44.0891 95.5999 44.205C95.5529 44.3241 95.5278 44.4526 95.5278 44.5904ZM95.3179 44.5904C95.3179 44.4275 95.3492 44.2771 95.4087 44.1392C95.4714 43.9982 95.5529 43.8792 95.6594 43.7758C95.7659 43.6724 95.8881 43.594 96.0291 43.5345C96.1701 43.475 96.3174 43.4468 96.4772 43.4468C96.637 43.4468 96.7811 43.475 96.9221 43.5345C97.0631 43.5909 97.1853 43.6724 97.2887 43.7758C97.3921 43.8792 97.4767 43.9982 97.5363 44.1392C97.5989 44.2802 97.6303 44.4275 97.6303 44.5904C97.6303 44.7534 97.5989 44.91 97.5363 45.0479C97.4736 45.1889 97.3921 45.3111 97.2887 45.4145C97.1853 45.5179 97.0631 45.5994 96.9221 45.6558C96.7811 45.7153 96.6339 45.7435 96.4772 45.7435C96.3205 45.7435 96.1701 45.7153 96.0291 45.6558C95.8881 45.5962 95.7659 45.5179 95.6594 45.4145C95.5529 45.3111 95.4714 45.1889 95.4087 45.0479C95.3461 44.9069 95.3179 44.7534 95.3179 44.5904Z" fill="white"/>
</g>
<defs>
<clipPath id="clip0_404_206">
<rect width="64.5435" height="11.3145" fill="white" transform="translate(33.0867 41.3599)"/>
</clipPath>
</defs>
</svg>
