<svg width="142" height="94" viewBox="0 0 142 94" fill="none" xmlns="http://www.w3.org/2000/svg">
<rect width="141" height="94" transform="translate(0.5)" fill="white"/>
<g clip-path="url(#clip0_404_249)">
<path d="M92.971 47.0878V47.0628C92.971 45.9003 92.1845 45.1264 91.257 45.1264C90.3296 45.1264 89.5588 45.8972 89.5588 47.0628V47.0878C89.5588 48.2534 90.3327 49.0242 91.257 49.0242C92.1814 49.0242 92.971 48.266 92.971 47.0878ZM87.5973 43.5691H89.587V44.5749C90.0695 43.92 90.7369 43.4375 91.7709 43.4375C93.4065 43.4375 94.9606 44.719 94.9606 47.0596V47.0847C94.9606 49.4253 93.4316 50.7068 91.7709 50.7068C90.7118 50.7068 90.057 50.2243 89.587 49.6603V52.6683H87.5973V43.5691Z" fill="white"/>
<path d="M48.1267 41.3599H49.9879L54.2743 47.0625V41.3599H56.264V50.5813H54.55L50.1164 44.7595V50.5813H48.1267V41.3599Z" fill="white"/>
<path d="M62.1734 46.5268C62.0575 45.6369 61.5342 45.0353 60.6976 45.0353C59.861 45.0353 59.3346 45.6275 59.1779 46.5268H62.1734ZM57.229 47.1158V47.0876C57.229 45.0854 58.6547 43.4404 60.6945 43.4404C63.0351 43.4404 64.1067 45.2578 64.1067 47.2474C64.1067 47.4041 64.0941 47.589 64.0816 47.7707H59.203C59.4004 48.6731 60.0271 49.1431 60.9169 49.1431C61.5843 49.1431 62.0669 48.9332 62.6183 48.4224L63.7557 49.4282C63.104 50.2398 62.1609 50.7348 60.8919 50.7348C58.7863 50.7348 57.229 49.2559 57.229 47.1127V47.1158Z" fill="white"/>
<path d="M65.3505 48.5921V45.2708H64.5139V43.5694H65.3505V41.7803H67.337V43.5694H68.9852V45.2708H67.337V48.2663C67.337 48.7237 67.5344 48.9462 67.9794 48.9462C68.346 48.9462 68.6718 48.8553 68.9601 48.6955V50.2904C68.5402 50.5411 68.0546 50.6977 67.3872 50.6977C66.1714 50.6977 65.3505 50.2121 65.3505 48.5921Z" fill="white"/>
<path d="M84.7992 47.0878V47.0628C84.7992 45.9003 84.0127 45.1264 83.0884 45.1264C82.1641 45.1264 81.3901 45.8972 81.3901 47.0628V47.0878C81.3901 48.2534 82.1609 49.0242 83.0884 49.0242C84.0159 49.0242 84.7992 48.266 84.7992 47.0878ZM79.4255 43.5691H81.4121V44.5749C81.8946 43.92 82.562 43.4375 83.596 43.4375C85.2316 43.4375 86.7857 44.719 86.7857 47.0596V47.0847C86.7857 49.4253 85.2567 50.7068 83.596 50.7068C82.5369 50.7068 81.8821 50.2243 81.4121 49.6603V52.6683H79.4255V43.5691Z" fill="white"/>
<path d="M75.3898 46.7492L74.1741 43.7788L72.9583 46.7492H75.3898ZM73.2936 41.3599H75.1047L78.9305 50.5813H76.8311L75.9883 48.5258H72.3599L71.5233 50.5813H69.4709L73.2936 41.3599Z" fill="white"/>
<path d="M33.0867 41.3599V50.5813H37.3887V45.0478H39.8484V50.5813H44.1505V41.3599H33.0867Z" fill="white"/>
<path d="M96.2359 44.5184H96.4553C96.4991 44.5184 96.543 44.5184 96.5869 44.5152C96.6307 44.5121 96.6683 44.5027 96.6997 44.4902C96.7341 44.4745 96.7592 44.4526 96.778 44.4244C96.7968 44.3962 96.8062 44.3523 96.8062 44.299C96.8062 44.2552 96.7968 44.2176 96.778 44.1925C96.7623 44.1674 96.7373 44.1455 96.7122 44.1298C96.684 44.1142 96.6527 44.1048 96.6182 44.1016C96.5837 44.0954 96.5461 44.0922 96.5117 44.0922H96.2359V44.5184ZM96.0291 43.923H96.5493C96.7091 43.923 96.8281 43.9544 96.9033 44.017C96.9785 44.0797 97.0193 44.1768 97.0193 44.3053C97.0193 44.4275 96.9848 44.5152 96.9159 44.5716C96.8501 44.628 96.7655 44.6625 96.6652 44.6719L97.0506 45.2641H96.825L96.4584 44.6876H96.2359V45.2641H96.026V43.9199L96.0291 43.923ZM95.5278 44.5904C95.5278 44.7314 95.5529 44.863 95.5999 44.9821C95.6469 45.1012 95.7158 45.2046 95.8004 45.2923C95.885 45.38 95.9853 45.449 96.1012 45.4991C96.2171 45.5492 96.3425 45.5743 96.4772 45.5743C96.6119 45.5743 96.7341 45.5492 96.8501 45.4991C96.966 45.449 97.0663 45.38 97.1509 45.2923C97.2355 45.2046 97.3013 45.1012 97.3514 44.9821C97.3984 44.863 97.4235 44.7314 97.4235 44.5904C97.4235 44.4494 97.3984 44.3241 97.3514 44.205C97.3044 44.086 97.2355 43.9826 97.1509 43.898C97.0663 43.8102 96.966 43.7413 96.8501 43.6912C96.7341 43.641 96.6119 43.616 96.4772 43.616C96.3425 43.616 96.2171 43.641 96.1012 43.6912C95.9853 43.7413 95.885 43.8102 95.8004 43.898C95.7158 43.9857 95.6469 44.0891 95.5999 44.205C95.5529 44.3241 95.5278 44.4526 95.5278 44.5904ZM95.3179 44.5904C95.3179 44.4275 95.3492 44.2771 95.4087 44.1392C95.4714 43.9982 95.5529 43.8792 95.6594 43.7758C95.7659 43.6724 95.8881 43.594 96.0291 43.5345C96.1701 43.475 96.3174 43.4468 96.4772 43.4468C96.637 43.4468 96.7811 43.475 96.9221 43.5345C97.0631 43.5909 97.1853 43.6724 97.2887 43.7758C97.3921 43.8792 97.4767 43.9982 97.5363 44.1392C97.5989 44.2802 97.6303 44.4275 97.6303 44.5904C97.6303 44.7534 97.5989 44.91 97.5363 45.0479C97.4736 45.1889 97.3921 45.3111 97.2887 45.4145C97.1853 45.5179 97.0631 45.5994 96.9221 45.6558C96.7811 45.7153 96.6339 45.7435 96.4772 45.7435C96.3205 45.7435 96.1701 45.7153 96.0291 45.6558C95.8881 45.5962 95.7659 45.5179 95.6594 45.4145C95.5529 45.3111 95.4714 45.1889 95.4087 45.0479C95.3461 44.9069 95.3179 44.7534 95.3179 44.5904Z" fill="white"/>
</g>
<g clip-path="url(#clip1_404_249)">
<path d="M115.77 80.2926V79.9112H116.014C116.148 79.9112 116.332 79.9199 116.332 80.0859C116.332 80.2635 116.239 80.2955 116.078 80.2955H115.767M115.77 80.5634H115.933L116.314 81.2331H116.731L116.309 80.5372C116.527 80.5227 116.705 80.4178 116.705 80.1237C116.705 79.7598 116.454 79.6433 116.029 79.6433H115.414V81.2331H115.767V80.5634M117.561 80.4382C117.561 79.5035 116.836 78.9619 116.026 78.9619C115.216 78.9619 114.485 79.5035 114.485 80.4382C114.485 81.3729 115.21 81.9145 116.026 81.9145C116.842 81.9145 117.561 81.37 117.561 80.4382ZM117.118 80.4382C117.118 81.1196 116.617 81.5767 116.026 81.5767V81.5709C115.417 81.5767 114.928 81.1196 114.928 80.4382C114.928 79.7568 115.42 79.3026 116.026 79.3026C116.632 79.3026 117.118 79.7568 117.118 80.4382Z" fill="black"/>
<path d="M61.2421 64.6356V81.3932H65.9786V64.6356H61.2421ZM24 64.6123V81.3932H28.7772V68.651H32.4767C33.703 68.651 34.574 68.9568 35.1654 69.5886C35.914 70.3865 36.2198 71.6735 36.2198 74.0262V81.3932H40.8485V72.1219C40.8485 65.5062 36.6277 64.6123 32.5 64.6123H24ZM68.8653 64.6356V81.3932H76.5439C80.6366 81.3932 81.9707 80.7118 83.4155 79.1889C84.438 78.1174 85.0963 75.7675 85.0963 73.1993C85.0963 70.8436 84.537 68.7442 83.5641 67.4339C81.8105 65.0928 79.282 64.6356 75.5098 64.6356H68.8653ZM73.5639 68.2841H75.6001C78.5538 68.2841 80.4618 69.609 80.4618 73.0508C80.4618 76.4926 78.5509 77.8175 75.6001 77.8175H73.5639V68.287V68.2841ZM54.4171 64.6356L50.4671 77.9165L46.6803 64.6356H41.568L46.9745 81.3903H53.7966L59.2467 64.6327H54.4141L54.4171 64.6356ZM87.2985 81.3932H92.0349V64.6385H87.2985V81.3932ZM100.573 64.6414L93.9604 81.3874H98.6299L99.6756 78.4289H107.5L108.49 81.3874H113.559L106.897 64.6414H100.573ZM103.646 67.6988L106.515 75.5433H100.689L103.649 67.6988H103.646Z" fill="black"/>
<path d="M54.9851 25.3843V21.3572C55.3754 21.3281 55.7716 21.3077 56.1736 21.2961C67.1875 20.9495 74.4145 30.7566 74.4145 30.7566C74.4145 30.7566 66.6107 41.5915 58.2418 41.5915C57.0358 41.5915 55.958 41.3964 54.9851 41.0703V28.8639C59.273 29.3822 60.1352 31.2749 62.7132 35.5698L68.4459 30.7362C68.4459 30.7362 64.2599 25.2503 57.2048 25.2503C56.4387 25.2503 55.7046 25.3056 54.9822 25.3813M54.9851 12.0859V18.0989C55.3813 18.0668 55.7774 18.0435 56.1736 18.029C71.4899 17.5136 81.4697 30.5848 81.4697 30.5848C81.4697 30.5848 70.0072 44.5179 58.067 44.5179C56.9717 44.5179 55.9493 44.416 54.9851 44.2471V47.9655C55.8095 48.0703 56.6601 48.1315 57.5514 48.1315C68.6643 48.1315 76.7012 42.4592 84.4817 35.7445C85.7721 36.7782 91.0533 39.2882 92.1398 40.3889C84.7409 46.5795 67.4962 51.5703 57.7204 51.5703C56.7795 51.5703 55.8736 51.515 54.9822 51.4277V56.6515H97.22V12.0859H54.9851ZM54.9851 41.0732V44.2471C44.7082 42.4155 41.8535 31.735 41.8535 31.735C41.8535 31.735 46.7881 26.2695 54.9851 25.3843V28.8668C54.9851 28.8668 54.9735 28.8668 54.9676 28.8668C50.6681 28.3514 47.3066 32.3668 47.3066 32.3668C47.3066 32.3668 49.1883 39.1281 54.9851 41.0761M36.7296 31.272C36.7296 31.272 42.8206 22.2861 54.9851 21.3572V18.0989C41.5127 19.1792 29.8463 30.5848 29.8463 30.5848C29.8463 30.5848 36.4529 49.6806 54.9851 51.4277V47.9626C41.3874 46.2533 36.7296 31.272 36.7296 31.272Z" fill="black"/>
</g>
<defs>
<clipPath id="clip0_404_249">
<rect width="64.5435" height="11.3145" fill="white" transform="translate(33.0867 41.3599)"/>
</clipPath>
<clipPath id="clip1_404_249">
<rect width="93.5612" height="69.8286" fill="white" transform="translate(24 12.0859)"/>
</clipPath>
</defs>
</svg>
